<?xml version="1.0" standalone="no"?>
<!DOCTYPE svg PUBLIC "-//W3C//DTD SVG 20010904//EN"
 "http://www.w3.org/TR/2001/REC-SVG-20010904/DTD/svg10.dtd">
<svg version="1.0" xmlns="http://www.w3.org/2000/svg"
 width="170.000000pt" height="173.000000pt" viewBox="0 0 170.000000 173.000000"
 preserveAspectRatio="xMidYMid meet">
<metadata>
Created by potrace 1.16, written by Peter Selinger 2001-2019
</metadata>
<g transform="translate(0.000000,173.000000) scale(0.100000,-0.100000)"
fill="#000000" stroke="none">
<path d="M1367 1695 c-92 -12 -170 -24 -172 -27 -3 -3 17 -17 45 -32 27 -15
52 -31 56 -37 7 -12 -56 -139 -72 -146 -7 -2 -35 7 -62 21 -28 14 -86 35 -128
47 -101 28 -264 23 -364 -11 -157 -53 -305 -176 -373 -311 -21 -41 -30 -63
-20 -50 131 179 283 266 484 278 70 4 116 1 170 -11 85 -19 197 -68 205 -91 8
-20 -115 -173 -219 -271 -84 -80 -199 -165 -291 -216 -66 -36 -47 -35 58 3
275 99 577 371 832 749 39 58 74 111 78 118 10 16 -22 15 -227 -13z"/>
<path d="M550 1536 c-349 -122 -560 -453 -519 -815 20 -179 93 -327 223 -456
165 -162 353 -234 581 -222 120 6 193 25 300 77 133 64 249 174 328 310 28 49
57 120 34 86 -156 -237 -368 -356 -637 -359 -97 0 -113 2 -210 36 -126 45
-216 103 -304 198 -197 213 -245 532 -120 796 67 141 202 277 337 338 31 15
57 28 57 31 0 5 7 7 -70 -20z"/>
</g>
</svg>
